<svg xmlns="http://www.w3.org/2000/svg" viewBox="0 0 1270 700" role="img" aria-label="Waypoint logo"><defs><linearGradient id="waypointGradient" x1="0%" y1="0%" x2="100%" y2="100%"><stop offset="0%" stop-color="#f97316"/><stop offset="50%" stop-color="#ec4899"/><stop offset="100%" stop-color="#6366f1"/></linearGradient></defs><path fill="url(#waypointGradient)" fill-rule="evenodd" d="M255.5 47.0L271.0 47.5L271.0 46.5L256.0 46.5ZM575.5 51.0L569.0 51.5L559.0 55.5L550.5 64.0L546.5 71.0L546.5 73.0L544.5 77.0L544.5 89.0L545.5 90.0L545.5 97.0L548.5 104.0L548.5 107.0L554.5 119.0L554.5 121.0L556.5 123.0L556.5 125.0L559.5 130.0L570.5 141.0L570.5 142.0L577.0 147.5L580.0 149.5L585.0 148.5L590.5 137.0L599.5 124.0L600.5 120.0L607.5 106.0L607.5 102.0L608.5 101.0L609.5 92.0L610.5 91.0L610.5 80.0L609.5 79.0L609.5 75.0L608.5 74.0L607.5 68.0L601.0 58.5L594.0 53.5L592.0 53.5L587.0 50.5L576.0 50.5ZM574.5 56.0L571.0 56.5L566.0 59.5L561.0 64.5L560.0 64.5L554.5 71.0L552.5 75.0L552.5 93.0L553.5 94.0L553.5 97.0L554.5 98.0L555.5 103.0L559.5 110.0L559.5 112.0L564.5 122.0L566.5 124.0L569.5 130.0L575.5 136.0L575.5 137.0L581.0 142.5L582.0 142.5L587.5 136.0L588.5 133.0L592.5 128.0L600.5 112.0L600.5 110.0L602.5 107.0L601.5 106.0L603.5 104.0L603.5 101.0L604.5 100.0L604.5 87.0L603.5 86.0L603.5 81.0L602.5 80.0L602.5 76.0L601.5 75.0L600.5 68.0L598.5 64.0L594.0 59.5L586.0 55.5L575.0 55.5ZM572.5 75.0L568.5 78.0L566.5 83.0L566.5 93.0L567.5 94.0L567.5 98.0L568.5 99.0L569.5 112.0L573.5 119.0L576.0 121.5L582.0 121.5L584.0 120.5L586.5 117.0L587.5 108.0L588.5 107.0L588.5 96.0L587.5 95.0L587.5 90.0L586.5 89.0L585.5 84.0L583.5 81.0L579.0 76.5L573.0 74.5ZM1039.5 95.0L1047.0 95.5L1047.0 94.5L1040.0 94.5ZM859.5 101.0L863.0 101.5L863.0 100.5L860.0 100.5ZM942.5 161.0L942.5 162.0L937.0 166.5L927.0 170.5L920.0 170.5L919.0 169.5L912.0 168.5L910.0 166.5L906.0 166.5L901.0 164.5L888.0 164.5L882.0 167.5L875.5 174.0L874.5 176.0L875.0 178.5L877.0 178.5L883.0 171.5L888.0 168.5L899.0 168.5L900.0 169.5L905.5 170.0L905.5 179.0L906.5 180.0L907.5 190.0L908.5 191.0L908.5 197.0L910.5 202.0L910.5 208.0L911.5 209.0L911.5 213.0L912.5 214.0L912.5 216.0L907.5 220.0L908.0 223.5L909.0 222.5L911.0 222.5L912.0 220.5L922.0 221.5L925.5 219.0L925.0 216.5L918.0 217.5L916.5 215.0L916.5 211.0L914.5 207.0L914.5 202.0L913.5 201.0L913.5 196.0L911.5 191.0L911.5 185.0L910.5 184.0L910.5 180.0L909.5 179.0L909.5 173.0L913.0 172.5L918.0 174.5L927.0 174.5L928.0 173.5L931.0 173.5L939.0 169.5L947.5 162.0L947.0 160.5L943.0 160.5ZM867.5 163.0L873.0 163.5L873.0 162.5L868.0 162.5ZM879.5 163.0L883.0 163.5L883.0 162.5L880.0 162.5ZM682.5 166.0L676.0 167.5L667.0 172.5L661.5 177.0L661.5 180.0L664.0 180.5L672.0 174.5L674.5 176.0L674.5 179.0L676.5 183.0L676.5 187.0L678.5 192.0L678.5 197.0L680.5 202.0L679.0 203.5L670.0 202.5L667.5 204.0L667.5 206.0L670.0 207.5L671.0 206.5L681.5 207.0L682.5 212.0L683.5 213.0L683.5 223.0L684.5 224.0L678.0 226.5L676.5 229.0L678.0 230.5L681.0 230.5L682.0 229.5L684.0 229.5L685.0 230.5L690.0 230.5L691.0 229.5L696.0 228.5L696.0 224.5L692.0 224.5L691.0 225.5L688.5 225.0L688.5 222.0L687.5 221.0L687.5 213.0L686.5 212.0L685.5 205.0L691.0 203.5L699.0 199.5L704.5 194.0L707.5 189.0L707.5 178.0L705.5 173.0L700.0 167.5L698.0 166.5L694.0 166.5L693.0 165.5L683.0 165.5ZM770.5 166.0L765.5 169.0L764.5 173.0L766.0 174.5L768.0 173.5L770.0 170.5L772.5 171.0L773.5 181.0L774.5 182.0L774.5 188.0L776.5 193.0L776.5 202.0L777.5 203.0L777.5 208.0L778.5 209.0L778.5 214.0L779.5 215.0L779.5 220.0L777.0 220.5L773.5 224.0L772.5 227.0L777.0 227.5L778.0 225.5L781.0 225.5L782.0 226.5L789.0 226.5L791.5 223.0L791.5 220.0L789.0 219.5L787.0 221.5L785.0 221.5L783.5 219.0L783.5 214.0L782.5 213.0L782.5 209.0L781.5 208.0L781.5 200.0L780.5 199.0L780.5 191.0L779.5 190.0L778.5 181.0L777.5 180.0L777.5 174.0L780.0 172.5L782.0 172.5L783.5 171.0L783.5 167.0L783.0 166.5L780.0 168.5L776.0 168.5L773.0 165.5L771.0 165.5ZM845.5 166.0L842.5 169.0L841.5 174.0L845.0 174.5L847.0 172.5L848.5 174.0L848.5 180.0L849.5 181.0L849.5 187.0L850.5 188.0L850.5 195.0L851.5 196.0L852.5 219.0L852.0 219.5L844.5 211.0L840.5 205.0L836.5 197.0L836.5 195.0L834.5 193.0L834.5 191.0L832.5 187.0L829.5 184.0L827.5 180.0L822.0 174.5L815.0 169.5L810.0 167.5L805.0 167.5L800.0 170.5L796.5 174.0L795.5 177.0L800.0 177.5L805.0 172.5L807.5 173.0L808.5 184.0L809.5 185.0L809.5 189.0L811.5 194.0L811.5 198.0L812.5 199.0L812.5 202.0L814.5 207.0L814.5 213.0L815.5 214.0L816.5 219.0L813.0 220.5L810.5 224.0L780.5 253.0L774.5 261.0L770.5 264.0L770.5 265.0L760.5 275.0L758.5 279.0L743.5 295.0L722.5 323.0L705.5 354.0L699.5 362.0L689.5 372.0L687.0 376.5L685.5 376.0L684.5 371.0L675.5 353.0L675.5 351.0L671.5 343.0L671.5 340.0L668.5 335.0L667.5 330.0L663.5 323.0L663.5 321.0L651.5 298.0L651.5 296.0L649.5 294.0L649.5 292.0L647.5 290.0L640.5 275.0L638.5 273.0L637.5 269.0L635.5 267.0L622.5 240.0L620.5 238.0L616.5 229.0L612.5 224.0L601.5 203.0L583.5 176.0L581.5 171.0L580.0 170.5L578.0 171.5L574.5 175.0L570.5 183.0L562.5 193.0L557.5 203.0L550.5 212.0L542.5 227.0L539.5 230.0L539.5 232.0L533.5 239.0L531.5 244.0L528.5 247.0L522.5 259.0L515.5 268.0L510.5 278.0L506.5 283.0L502.5 292.0L500.5 294.0L495.5 305.0L490.5 312.0L486.5 321.0L483.5 324.0L480.5 331.0L475.5 338.0L474.5 342.0L471.5 345.0L468.5 352.0L466.5 354.0L466.5 356.0L464.5 358.0L456.5 374.0L456.5 376.0L454.5 380.0L452.5 382.0L448.5 391.0L445.5 395.0L445.5 397.0L435.5 416.0L435.5 418.0L432.5 423.0L431.5 428.0L430.0 429.5L429.0 429.5L423.5 424.0L423.5 423.0L422.0 422.5L416.5 417.0L416.5 416.0L415.0 415.5L400.5 401.0L400.5 400.0L391.5 391.0L391.5 390.0L389.0 388.5L383.5 383.0L383.5 382.0L374.5 374.0L374.5 373.0L360.5 359.0L359.5 356.0L358.0 354.5L356.0 354.5L355.5 358.0L353.0 360.5L352.0 360.5L343.0 369.5L335.0 375.5L319.0 391.5L318.0 391.5L313.0 396.5L312.0 396.5L311.0 398.5L303.0 404.5L302.5 406.0L301.0 406.5L292.0 415.5L291.0 415.5L289.5 418.0L277.5 429.0L277.0 430.5L276.0 430.5L264.0 441.5L257.0 446.5L244.0 459.5L236.0 465.5L224.0 477.5L223.0 477.5L218.0 483.5L217.0 483.5L204.0 496.5L203.0 496.5L200.5 500.0L196.0 504.5L195.0 504.5L180.0 520.5L179.0 520.5L161.0 538.5L158.5 540.0L158.5 541.0L128.5 571.0L128.5 572.0L119.5 580.0L118.0 582.5L115.0 583.5L104.5 594.0L107.0 595.5L114.0 588.5L124.0 581.5L124.5 580.0L143.5 561.0L143.5 560.0L145.0 559.5L166.5 538.0L166.5 537.0L168.0 536.5L174.5 530.0L176.0 527.5L177.0 527.5L186.0 518.5L187.0 518.5L188.5 516.0L226.0 479.5L227.0 479.5L239.0 467.5L240.0 467.5L249.0 458.5L250.0 458.5L262.0 446.5L267.0 443.5L280.0 431.5L281.0 431.5L281.5 430.0L283.0 429.5L303.0 409.5L304.0 409.5L309.0 403.5L315.0 399.5L343.0 373.5L344.0 373.5L357.0 361.5L358.0 361.5L358.5 363.0L357.0 363.5L354.5 367.0L354.5 370.0L351.0 378.5L348.0 378.5L345.0 381.5L341.0 383.5L322.0 402.5L321.0 402.5L320.5 404.0L313.0 411.5L305.0 417.5L301.0 422.5L300.0 422.5L292.0 430.5L291.0 430.5L278.0 443.5L269.0 449.5L262.5 456.0L262.5 457.0L258.5 460.0L258.0 461.5L257.0 461.5L242.0 476.5L241.0 476.5L238.5 480.0L237.0 480.5L220.5 497.0L220.5 498.0L213.5 505.0L213.5 506.0L206.0 513.5L205.0 513.5L199.0 520.5L198.0 520.5L188.0 530.5L180.0 536.5L170.0 546.5L159.0 554.5L158.5 556.0L149.0 565.5L148.0 565.5L139.5 574.0L139.0 575.5L132.0 580.5L120.5 592.0L118.5 597.0L121.0 596.5L129.0 588.5L130.0 588.5L137.0 581.5L138.0 581.5L165.0 554.5L171.0 550.5L179.0 542.5L180.0 542.5L197.0 526.5L198.0 526.5L204.5 520.0L204.5 519.0L207.0 517.5L213.0 510.5L214.5 510.0L214.5 509.0L223.5 500.0L223.5 499.0L271.0 452.5L281.0 445.5L307.0 420.5L312.0 417.5L313.5 415.0L315.0 414.5L321.5 408.0L321.5 407.0L336.0 393.5L337.0 393.5L341.0 388.5L349.0 382.5L349.5 384.0L344.5 395.0L333.5 407.0L333.5 408.0L320.0 421.5L319.0 421.5L313.0 427.5L307.0 431.5L291.0 447.5L285.0 451.5L250.0 487.5L249.0 487.5L239.0 497.5L238.0 497.5L235.5 501.0L217.0 519.5L216.0 519.5L207.0 528.5L206.0 528.5L203.0 532.5L195.0 538.5L184.0 550.5L176.0 556.5L164.0 568.5L149.0 579.5L138.5 590.0L135.5 595.0L135.5 598.0L131.5 599.0L135.0 599.5L138.0 597.5L138.5 596.0L154.0 580.5L162.0 575.5L176.0 561.5L177.0 561.5L184.0 554.5L185.0 554.5L196.0 542.5L201.0 539.5L204.0 535.5L205.0 535.5L217.0 523.5L218.0 523.5L222.0 518.5L223.0 518.5L261.0 480.5L262.0 480.5L269.5 472.0L269.5 471.0L272.0 469.5L284.0 457.5L285.0 457.5L290.0 451.5L296.0 447.5L310.0 433.5L311.0 433.5L318.0 426.5L325.0 421.5L340.0 405.5L348.0 400.5L349.5 401.0L349.5 403.0L345.5 412.0L334.0 423.5L333.0 423.5L327.0 430.5L320.0 435.5L295.5 460.0L295.5 461.0L287.5 469.0L281.5 477.0L255.0 503.5L254.0 503.5L246.0 511.5L241.0 514.5L234.0 521.5L233.0 521.5L220.0 533.5L213.0 538.5L211.5 541.0L203.5 548.0L203.0 549.5L202.0 549.5L182.0 568.5L177.0 571.5L158.5 590.0L158.5 591.0L153.5 595.0L153.5 598.0L155.0 598.5L157.0 597.5L159.5 594.0L177.0 576.5L182.0 573.5L184.0 570.5L185.0 570.5L206.0 550.5L207.0 550.5L207.5 549.0L215.0 541.5L220.0 538.5L229.0 529.5L241.0 520.5L252.0 509.5L260.0 503.5L272.0 491.5L273.0 491.5L276.0 487.5L285.0 486.5L288.0 484.5L293.0 483.5L293.5 484.0L291.5 487.0L290.0 487.5L275.0 502.5L274.0 502.5L266.0 510.5L256.0 517.5L246.0 527.5L245.0 527.5L240.0 532.5L233.0 537.5L204.0 564.5L203.0 564.5L184.5 583.0L184.5 584.0L175.5 592.0L172.5 597.0L172.5 598.0L175.0 599.5L185.5 588.0L185.5 587.0L220.0 553.5L227.0 548.5L244.0 532.5L249.0 529.5L249.5 528.0L251.0 527.5L261.0 517.5L267.0 514.5L277.0 504.5L284.0 499.5L284.5 498.0L288.0 494.5L289.0 494.5L300.0 482.5L307.0 479.5L310.0 479.5L309.5 482.0L306.5 484.0L302.5 490.0L301.0 490.5L282.0 509.5L281.0 509.5L280.5 511.0L278.0 512.5L237.0 554.5L227.0 561.5L225.0 564.5L224.0 564.5L209.0 578.5L201.0 584.5L192.5 593.0L190.5 597.0L190.5 599.0L193.0 599.5L195.5 595.0L203.0 587.5L204.0 587.5L211.0 580.5L218.0 575.5L221.0 571.5L222.0 571.5L240.0 555.5L241.0 555.5L242.5 553.0L247.0 548.5L248.0 548.5L251.5 545.0L251.5 544.0L270.0 525.5L271.0 525.5L282.0 513.5L283.0 513.5L301.0 495.5L302.0 495.5L310.5 486.0L310.5 485.0L316.5 481.0L317.0 477.5L321.0 477.5L324.0 475.5L326.0 475.5L330.0 473.5L335.0 473.5L335.5 474.0L319.5 490.0L319.5 491.0L318.0 491.5L316.5 494.0L280.0 530.5L265.0 541.5L255.5 551.0L255.0 552.5L254.0 552.5L232.0 573.5L226.0 577.5L213.0 590.5L212.0 590.5L206.5 598.0L208.0 600.5L228.0 580.5L229.0 580.5L245.0 565.5L246.0 565.5L266.0 545.5L275.0 539.5L278.5 536.0L278.5 535.0L280.0 534.5L287.0 527.5L288.0 527.5L301.5 514.0L303.0 511.5L311.0 505.5L311.5 504.0L321.5 494.0L321.5 493.0L336.0 478.5L338.5 478.0L339.0 473.5L344.0 472.5L345.0 471.5L348.0 471.5L348.5 472.0L346.5 475.0L340.5 483.0L334.5 489.0L331.5 494.0L327.0 498.5L326.0 498.5L322.5 502.0L322.5 503.0L321.0 503.5L320.5 505.0L300.0 525.5L299.0 525.5L291.0 534.5L290.0 534.5L277.0 547.5L272.0 550.5L253.0 568.5L246.0 573.5L220.5 599.0L220.5 601.0L223.0 601.5L229.5 595.0L229.5 594.0L232.0 592.5L250.0 574.5L257.0 569.5L273.0 554.5L278.0 551.5L288.0 541.5L289.0 541.5L289.5 540.0L292.0 538.5L299.5 531.0L299.5 530.0L302.0 528.5L322.5 508.0L322.5 507.0L335.5 495.0L337.5 491.0L343.5 485.0L351.0 474.5L354.0 473.5L355.5 471.0L358.0 469.5L362.0 469.5L363.0 468.5L366.0 468.5L367.0 467.5L372.0 466.5L372.5 467.0L369.5 472.0L369.5 474.0L365.5 480.0L358.5 488.0L352.5 498.0L341.5 511.0L341.5 512.0L336.5 517.0L336.5 518.0L311.5 544.0L308.5 549.0L298.5 559.0L298.0 560.5L282.0 572.5L267.0 585.5L261.0 588.5L255.5 594.0L255.5 598.0L257.0 598.5L263.0 591.5L268.0 589.5L280.0 578.5L285.0 575.5L294.0 567.5L297.0 566.5L298.5 564.0L305.5 558.0L305.5 557.0L325.5 536.0L329.5 530.0L337.5 522.0L337.5 521.0L344.5 514.0L348.5 508.0L354.5 502.0L356.5 497.0L360.5 491.0L364.5 487.0L369.5 478.0L375.5 470.0L375.5 467.0L374.5 466.0L380.0 463.5L385.0 463.5L386.0 462.5L388.5 463.0L388.5 466.0L385.5 470.0L385.5 472.0L383.5 476.0L379.5 482.0L370.5 492.0L369.5 495.0L363.5 502.0L360.5 508.0L355.5 513.0L344.5 528.0L309.5 565.0L305.5 571.0L286.0 589.5L285.0 589.5L278.5 596.0L278.5 598.0L280.0 599.5L282.0 598.5L309.5 572.0L309.5 571.0L316.5 564.0L316.5 563.0L351.5 525.0L353.5 521.0L365.5 507.0L368.5 501.0L372.0 497.5L374.0 496.5L378.0 496.5L379.0 495.5L379.5 497.0L374.5 505.0L371.5 508.0L363.5 520.0L350.5 535.0L346.5 542.0L325.5 564.0L321.5 570.0L311.5 579.0L311.5 580.0L299.5 593.0L298.5 596.0L300.0 597.5L302.0 596.5L308.5 589.0L310.5 585.0L318.0 577.5L319.0 577.5L321.0 574.5L322.5 574.0L322.5 573.0L337.5 557.0L343.5 549.0L345.5 548.0L351.5 539.0L365.5 523.0L370.5 515.0L374.5 511.0L378.5 504.0L383.5 500.0L383.5 496.0L382.5 495.0L384.0 493.5L386.0 493.5L391.0 490.5L398.0 489.5L399.0 488.5L406.5 489.0L406.5 492.0L404.5 497.0L402.0 497.5L400.5 499.0L397.5 505.0L387.5 520.0L384.5 523.0L372.5 542.0L367.5 547.0L364.5 553.0L355.5 563.0L338.5 586.0L334.5 590.0L332.5 593.0L332.5 597.0L334.0 597.5L334.5 596.0L336.5 595.0L337.5 592.0L340.5 589.0L342.5 585.0L351.5 573.0L371.5 549.0L371.5 547.0L382.5 534.0L386.5 526.0L393.5 518.0L396.5 511.0L400.0 507.5L401.5 513.0L398.5 516.0L394.5 523.0L391.5 526.0L388.5 532.0L380.5 542.0L375.5 551.0L363.5 566.0L359.5 574.0L346.5 593.0L345.5 597.0L348.0 597.5L350.5 595.0L353.5 588.0L361.5 577.0L363.5 572.0L369.5 563.0L379.5 551.0L385.5 541.0L394.5 530.0L401.5 518.0L404.0 516.5L405.0 514.5L413.0 513.5L414.0 512.5L414.5 519.0L413.5 520.0L413.5 525.0L408.5 528.0L397.5 548.0L385.5 564.0L371.5 592.0L371.5 595.0L373.0 596.5L375.5 594.0L377.5 590.0L378.5 585.0L386.5 569.0L388.5 567.0L391.5 561.0L398.5 553.0L399.5 550.0L408.5 537.0L409.5 533.0L413.0 530.5L413.5 548.0L414.5 549.0L416.5 563.0L412.5 564.0L411.5 568.0L408.5 573.0L408.5 575.0L405.5 580.0L405.5 582.0L398.5 596.0L399.0 597.5L402.5 596.0L405.5 590.0L407.5 582.0L413.5 570.0L413.5 568.0L416.0 566.5L417.5 569.0L417.5 572.0L410.5 586.0L410.5 588.0L407.5 595.0L407.5 596.0L409.0 596.5L412.5 592.0L412.5 589.0L415.5 582.0L417.0 580.5L418.0 582.5L421.5 581.0L421.5 569.0L420.5 568.0L418.5 551.0L416.5 546.0L416.5 539.0L417.5 538.0L417.5 536.0L416.5 535.0L416.5 532.0L417.5 531.0L417.5 526.0L416.5 525.0L416.5 523.0L417.5 522.0L417.5 517.0L418.5 516.0L418.5 509.0L416.0 508.5L415.0 509.5L411.0 509.5L410.0 510.5L404.5 509.0L405.5 508.0L406.5 501.0L408.5 498.0L408.5 496.0L410.5 492.0L410.5 486.0L408.0 484.5L394.0 485.5L393.0 486.5L388.0 487.5L383.0 490.5L381.0 490.5L378.0 492.5L375.5 492.0L384.5 481.0L392.5 466.0L392.5 460.0L391.0 458.5L385.0 458.5L384.0 459.5L374.0 461.5L367.0 464.5L361.0 464.5L360.0 465.5L356.0 465.5L355.0 466.5L346.0 467.5L345.0 468.5L341.0 468.5L340.0 469.5L330.0 469.5L320.0 473.5L315.0 473.5L314.0 474.5L310.0 474.5L309.0 475.5L305.0 473.5L300.0 477.5L298.0 477.5L294.0 479.5L291.0 479.5L285.0 482.5L282.5 482.0L287.5 474.0L306.5 454.0L306.5 453.0L308.0 452.5L340.0 421.5L341.0 421.5L349.5 412.0L354.5 399.0L354.5 396.0L350.0 395.5L348.0 396.5L347.5 395.0L352.5 386.0L352.5 384.0L355.5 377.0L355.5 374.0L357.5 371.0L358.5 365.0L360.0 363.5L366.5 370.0L366.5 371.0L369.0 372.5L373.5 377.0L373.5 378.0L392.5 396.0L397.5 403.0L406.0 411.5L407.0 411.5L410.0 415.5L412.5 417.0L412.5 418.0L468.5 475.0L470.5 479.0L482.5 492.0L482.5 497.0L484.0 498.5L487.0 498.5L493.5 505.0L497.5 511.0L504.5 518.0L504.5 519.0L511.5 526.0L511.5 527.0L513.0 527.5L519.5 535.0L519.5 536.0L523.5 539.0L523.5 540.0L527.5 544.0L528.5 547.0L533.5 552.0L535.5 556.0L542.5 564.0L546.5 572.0L552.5 577.0L556.5 583.0L558.0 583.5L558.5 585.0L565.0 591.5L566.0 591.5L571.0 597.5L577.0 594.5L580.5 585.0L589.5 574.0L591.5 570.0L597.5 564.0L599.5 560.0L612.5 546.0L615.5 542.0L617.5 537.0L621.5 533.0L625.5 526.0L644.5 505.0L647.5 500.0L655.0 492.5L658.0 491.5L659.0 495.5L661.5 493.0L660.5 488.0L663.5 484.0L662.0 482.5L660.0 484.5L658.5 484.0L658.5 481.0L656.5 476.0L656.5 469.0L655.5 468.0L654.5 462.0L651.5 456.0L646.0 450.5L636.0 448.5L635.0 446.5L633.0 446.5L630.0 448.5L624.0 448.5L622.0 445.5L616.0 449.5L612.0 449.5L611.0 450.5L608.5 450.0L608.5 448.0L610.5 446.0L610.5 443.0L618.5 432.0L619.5 428.0L621.5 426.0L622.5 422.0L624.5 420.0L625.5 415.0L628.5 411.0L629.5 406.0L631.5 403.0L631.5 401.0L634.5 395.0L634.5 392.0L637.5 385.0L637.5 376.0L635.5 372.0L637.5 369.0L637.0 365.5L635.0 365.5L633.0 367.5L631.0 367.5L628.0 365.5L626.0 365.5L625.0 366.5L615.0 366.5L611.5 364.0L611.5 357.0L613.5 353.0L613.5 349.0L614.5 348.0L614.5 344.0L615.5 343.0L615.5 336.0L616.5 335.0L615.5 333.0L615.5 328.0L613.5 324.0L612.0 322.5L605.0 323.5L599.0 326.5L579.0 330.5L573.0 333.5L571.0 333.5L566.0 336.5L563.5 336.0L564.5 333.0L567.5 330.0L571.5 323.0L577.5 317.0L585.5 305.0L599.5 289.0L604.5 280.0L606.5 278.0L606.5 276.0L611.5 266.0L610.5 265.0L610.5 262.0L608.0 260.5L607.0 261.5L602.0 261.5L601.0 262.5L595.5 262.0L597.5 258.0L598.5 253.0L600.5 250.0L600.5 248.0L602.5 244.0L602.5 241.0L601.0 239.5L588.0 239.5L586.0 240.5L584.5 239.0L585.5 238.0L585.5 235.0L588.5 230.0L588.5 227.0L589.5 226.0L589.5 223.0L591.5 218.0L591.5 213.0L590.0 211.5L587.0 211.5L583.0 213.5L579.0 213.5L571.0 216.5L568.5 216.0L569.5 212.0L571.5 209.0L571.5 207.0L573.5 204.0L574.5 198.0L577.5 191.0L578.5 181.0L581.0 177.5L582.5 181.0L592.5 195.0L593.5 198.0L599.5 206.0L607.5 222.0L609.5 224.0L611.5 229.0L614.5 232.0L619.5 243.0L621.5 245.0L624.5 252.0L626.5 254.0L626.5 256.0L630.5 263.0L630.5 265.0L634.5 271.0L637.5 278.0L639.5 280.0L661.5 324.0L662.5 329.0L667.5 338.0L669.5 346.0L671.5 349.0L673.5 356.0L676.5 361.0L676.5 363.0L681.5 372.0L684.5 382.0L686.5 384.0L689.5 394.0L697.5 411.0L697.5 413.0L704.5 427.0L706.5 429.0L706.5 431.0L708.5 433.0L713.5 443.0L715.5 445.0L728.5 473.0L731.5 476.0L731.5 478.0L733.5 480.0L733.5 482.0L735.5 484.0L737.5 488.0L737.5 490.0L739.5 492.0L743.5 500.0L743.5 503.0L748.5 509.0L749.5 513.0L752.5 516.0L753.5 518.0L753.5 522.0L755.0 522.5L760.5 529.0L761.5 532.0L764.5 535.0L763.5 536.0L763.5 538.0L766.0 540.5L768.0 541.5L769.5 540.0L768.5 538.0L771.5 533.0L771.5 531.0L774.5 525.0L781.5 519.0L786.5 512.0L796.5 502.0L801.5 495.0L807.5 489.0L809.5 485.0L815.5 478.0L820.5 470.0L829.5 462.0L833.5 455.0L845.5 441.0L846.5 438.0L850.5 434.0L850.5 433.0L854.0 429.5L854.5 432.0L856.5 432.0L856.5 425.0L866.5 425.0L857.5 435.0L848.5 447.0L846.5 451.0L845.0 451.5L844.5 453.0L836.5 461.0L831.5 469.0L827.5 472.0L826.5 475.0L798.5 505.0L796.5 509.0L789.5 517.0L789.5 518.0L773.5 535.0L772.5 538.0L770.5 540.0L773.0 541.5L775.5 537.0L780.5 533.0L784.5 527.0L786.0 526.5L786.5 525.0L788.0 524.5L788.5 523.0L794.5 517.0L795.5 514.0L804.5 504.0L804.5 503.0L822.5 484.0L827.5 477.0L834.5 470.0L837.5 465.0L851.5 450.0L854.5 444.0L860.5 438.0L868.5 426.0L870.0 424.5L871.0 427.5L872.5 426.0L872.5 424.0L877.0 421.5L879.0 421.5L880.0 422.5L885.0 422.5L887.5 424.0L881.0 430.5L879.5 431.0L876.5 436.0L869.5 443.0L869.5 444.0L847.5 465.0L847.5 466.0L836.5 477.0L836.5 478.0L829.5 485.0L823.5 493.0L798.5 519.0L792.5 528.0L792.5 530.0L790.5 534.0L792.0 535.5L794.5 533.0L800.5 522.0L817.5 505.0L817.5 504.0L825.5 496.0L827.5 492.0L834.5 485.0L834.5 484.0L839.5 480.0L839.5 479.0L848.5 470.0L848.5 469.0L872.5 446.0L872.5 445.0L884.0 432.5L886.0 432.5L887.5 431.0L889.0 423.5L892.5 426.0L896.5 432.0L898.5 436.0L898.5 441.0L891.5 447.0L891.5 448.0L876.5 463.0L871.5 470.0L868.5 472.0L866.5 476.0L861.5 480.0L861.5 481.0L849.5 493.0L849.5 494.0L840.5 503.0L840.5 504.0L820.5 524.0L814.5 534.0L816.0 535.5L818.5 534.0L819.5 531.0L822.5 527.0L865.5 482.0L865.5 481.0L875.5 471.0L878.5 466.0L883.0 461.5L884.0 461.5L895.0 449.5L898.5 450.0L897.5 452.0L897.5 472.0L898.5 474.0L896.0 475.5L894.0 475.5L891.5 478.0L891.5 479.0L884.5 486.0L884.5 487.0L866.5 505.0L860.5 513.0L859.0 513.5L858.5 515.0L846.5 527.0L846.5 531.0L845.5 533.0L847.0 535.5L848.5 534.0L848.5 531.0L850.5 528.0L860.5 518.0L860.5 517.0L866.5 511.0L871.5 504.0L875.0 501.5L888.5 488.0L888.5 487.0L892.5 484.0L895.0 480.5L897.0 479.5L899.0 479.5L901.5 484.0L893.5 491.0L892.5 494.0L886.5 500.0L886.5 501.0L865.5 522.0L857.5 533.0L856.5 538.0L858.0 538.5L859.5 537.0L866.5 526.0L871.5 521.0L871.5 520.0L876.0 515.5L877.0 515.5L886.0 505.5L887.5 505.0L893.5 497.0L901.5 491.0L902.0 486.5L904.5 488.0L906.5 492.0L906.5 494.0L905.0 494.5L904.5 496.0L903.0 496.5L895.0 504.5L889.0 508.5L882.5 516.0L882.5 517.0L876.5 523.0L876.5 524.0L870.5 530.0L870.5 531.0L867.5 533.0L871.0 535.5L873.0 535.5L874.5 531.0L879.5 526.0L886.5 516.0L890.0 512.5L894.0 510.5L908.0 497.5L910.5 499.0L911.5 502.0L908.0 503.5L896.5 515.0L896.5 516.0L887.5 526.0L885.5 529.0L884.5 533.0L887.0 534.5L888.5 533.0L888.5 531.0L896.5 520.0L908.0 508.5L911.0 509.5L913.0 507.5L915.5 512.0L914.0 512.5L906.5 520.0L900.5 528.0L900.5 530.0L898.5 533.0L899.5 534.0L899.5 536.0L902.5 536.0L904.5 528.0L910.5 520.0L917.0 514.5L918.5 516.0L918.5 520.0L912.5 529.0L912.5 532.0L914.0 532.5L915.5 531.0L921.0 521.5L922.5 523.0L925.5 530.0L928.0 532.5L930.0 533.5L935.5 533.0L927.5 526.0L920.5 512.0L920.5 509.0L916.5 505.0L916.5 503.0L913.5 498.0L913.5 496.0L911.5 492.0L908.5 489.0L906.5 484.0L903.5 480.0L902.5 474.0L901.5 473.0L901.5 451.0L902.5 450.0L902.5 437.0L901.5 436.0L901.5 433.0L898.5 429.0L897.5 426.0L892.0 420.5L886.0 419.5L885.0 418.5L874.0 418.5L873.0 417.5L868.0 420.5L862.0 420.5L861.0 421.5L854.0 420.5L852.5 419.0L852.5 418.0L861.0 410.5L863.0 409.5L864.0 410.5L869.0 410.5L869.0 409.5L864.0 409.5L863.5 409.0L865.0 407.5L876.0 402.5L882.5 398.0L886.5 391.0L886.5 388.0L887.5 387.0L887.5 376.0L886.5 374.0L883.0 372.5L881.0 373.5L877.0 373.5L875.0 371.5L870.0 375.5L864.0 378.5L862.0 378.5L861.0 379.5L856.0 379.5L854.5 377.0L857.5 373.0L858.5 367.0L860.5 364.0L860.5 359.0L859.0 357.5L856.0 357.5L855.0 356.5L850.0 356.5L849.0 357.5L845.0 357.5L844.0 358.5L840.0 358.5L839.0 359.5L835.0 359.5L834.0 360.5L823.0 360.5L822.0 361.5L819.0 361.5L818.0 362.5L813.0 363.5L802.0 369.5L795.0 370.5L788.0 373.5L782.0 373.5L779.5 366.0L776.5 363.0L776.5 351.0L777.5 350.0L776.5 349.0L776.5 344.0L781.5 335.0L781.5 333.0L789.5 322.0L790.5 317.0L794.5 310.0L793.5 305.0L803.5 291.0L807.5 280.0L806.5 279.0L806.5 277.0L804.0 274.5L800.0 272.5L795.0 272.5L794.5 271.0L791.5 269.0L791.5 268.0L803.5 245.0L803.5 243.0L807.5 235.0L808.0 231.5L816.0 237.5L819.0 238.5L821.0 240.5L823.0 240.5L827.0 244.5L828.0 244.5L840.0 256.5L841.0 256.5L848.0 263.5L849.0 263.5L849.5 265.0L851.0 265.5L861.5 276.0L861.5 277.0L864.0 278.5L871.5 286.0L871.5 287.0L873.0 287.5L876.5 291.0L876.5 292.0L886.5 301.0L886.5 302.0L896.5 313.0L899.5 318.0L923.5 344.0L925.5 348.0L957.5 384.0L957.5 385.0L961.5 389.0L973.5 405.0L986.5 419.0L986.5 420.0L992.5 426.0L992.5 427.0L1003.5 439.0L1003.5 440.0L1005.0 440.5L1010.5 446.0L1010.5 447.0L1014.0 449.5L1029.5 465.0L1029.5 466.0L1032.0 467.5L1037.5 473.0L1037.5 474.0L1045.5 481.0L1045.5 482.0L1055.5 492.0L1060.5 499.0L1073.5 512.0L1073.5 513.0L1080.5 520.0L1080.5 521.0L1085.0 525.5L1088.0 525.5L1088.5 523.0L1082.0 516.5L1080.5 516.0L1074.5 508.0L1073.0 507.5L1072.5 506.0L1061.5 495.0L1056.5 488.0L1032.5 464.0L1032.5 463.0L1030.0 461.5L1029.5 460.0L1018.0 448.5L1017.0 448.5L1008.0 438.5L1006.5 438.0L1006.5 437.0L998.5 429.0L994.5 423.0L987.5 416.0L983.5 410.0L980.5 408.0L980.5 407.0L965.5 390.0L959.5 381.0L932.5 351.0L928.5 345.0L915.5 331.0L911.5 325.0L902.5 316.0L893.5 304.0L877.5 288.0L877.5 287.0L875.0 285.5L872.5 282.0L851.0 260.5L843.0 254.5L834.0 244.5L816.0 232.5L811.5 228.0L815.0 225.5L822.0 225.5L823.0 224.5L825.0 224.5L826.5 222.0L826.0 219.5L822.0 220.5L819.5 215.0L818.5 206.0L817.5 205.0L817.5 202.0L816.5 201.0L816.5 198.0L815.5 197.0L815.5 194.0L814.5 193.0L814.5 190.0L812.5 185.0L812.5 178.0L811.5 177.0L812.0 173.5L814.0 173.5L817.0 175.5L824.5 183.0L829.5 190.0L832.5 196.0L832.5 198.0L835.5 203.0L835.5 205.0L837.5 207.0L838.5 210.0L844.5 218.0L851.0 224.5L853.0 225.5L865.0 225.5L868.0 223.5L870.0 223.5L872.5 221.0L872.0 218.5L870.0 218.5L864.0 221.5L857.5 221.0L857.5 217.0L856.5 216.0L856.5 207.0L855.5 206.0L855.5 196.0L854.5 195.0L854.5 188.0L853.5 187.0L853.5 179.0L852.5 178.0L852.5 174.0L851.5 172.0L858.0 170.5L859.5 168.0L859.5 166.0L858.0 165.5L857.0 166.5L852.0 167.5L851.0 165.5L846.0 165.5ZM496.5 168.0L493.5 170.0L495.0 173.5L497.0 173.5L499.0 171.5L502.5 172.0L500.5 176.0L495.5 182.0L492.5 189.0L488.5 193.0L488.5 194.0L484.0 197.5L478.0 191.5L476.5 191.0L476.5 190.0L470.5 184.0L464.5 176.0L464.5 175.0L467.0 173.5L468.5 171.0L467.0 168.5L464.0 168.5L462.0 171.5L460.0 169.5L452.0 169.5L449.5 173.0L449.5 175.0L454.0 175.5L455.0 174.5L457.0 174.5L464.5 182.0L466.5 186.0L481.0 200.5L482.0 200.5L484.5 204.0L485.5 226.0L484.0 227.5L482.0 227.5L479.0 230.5L467.5 231.0L479.0 231.5L481.0 234.5L485.0 231.5L488.0 231.5L489.0 232.5L495.0 232.5L497.0 231.5L498.5 229.0L496.0 226.5L492.0 228.5L489.5 223.0L488.5 201.0L494.5 193.0L503.5 177.0L507.0 173.5L513.0 173.5L516.5 171.0L516.0 168.5L509.0 169.5L507.0 167.5L497.0 167.5ZM575.5 168.0L578.0 168.5L578.0 167.5L576.0 167.5ZM583.5 168.0L590.0 168.5L590.0 167.5L584.0 167.5ZM350.5 169.0L347.5 171.0L346.5 176.0L350.0 176.5L352.0 172.5L355.0 172.5L357.5 176.0L360.5 197.0L363.5 205.0L364.5 215.0L367.5 222.0L365.0 222.5L353.0 213.5L348.0 207.5L335.0 199.5L333.0 200.5L332.5 202.0L320.5 214.0L314.5 223.0L311.0 226.5L309.5 225.0L309.5 222.0L307.5 217.0L307.5 213.0L306.5 212.0L306.5 206.0L305.5 205.0L305.5 193.0L304.5 192.0L304.5 186.0L303.5 185.0L303.5 179.0L307.0 178.5L309.5 175.0L306.0 172.5L304.0 174.5L301.0 174.5L297.0 172.5L293.0 172.5L286.5 178.0L286.5 180.0L290.0 180.5L294.0 176.5L296.0 176.5L299.5 179.0L299.5 184.0L300.5 185.0L300.5 189.0L301.5 190.0L301.5 206.0L302.5 207.0L302.5 215.0L303.5 216.0L303.5 219.0L307.5 229.0L307.0 230.5L302.0 231.5L297.5 237.0L302.0 237.5L304.0 235.5L306.0 235.5L307.0 234.5L316.0 236.5L324.0 233.5L324.0 229.5L321.0 229.5L319.0 231.5L313.5 231.0L316.5 227.0L317.5 224.0L334.0 204.5L345.0 210.5L346.5 213.0L357.0 222.5L364.5 227.0L364.0 228.5L361.0 228.5L355.5 233.0L357.0 235.5L359.0 235.5L363.0 232.5L376.0 232.5L379.5 229.0L379.5 227.0L376.0 226.5L373.0 228.5L371.5 227.0L371.5 223.0L370.5 222.0L369.5 214.0L368.5 213.0L368.5 208.0L367.5 207.0L366.5 200.0L364.5 196.0L364.5 192.0L362.5 187.0L362.5 181.0L361.5 180.0L361.5 178.0L367.0 174.5L370.5 171.0L364.0 170.5L363.0 171.5L361.0 171.5L356.0 168.5L351.0 168.5ZM735.5 169.0L732.0 170.5L725.5 177.0L723.5 182.0L721.5 184.0L718.5 190.0L718.5 193.0L717.5 194.0L717.5 207.0L718.5 208.0L718.5 211.0L720.5 214.0L729.0 221.5L731.0 221.5L732.0 222.5L741.0 222.5L742.0 221.5L747.0 220.5L749.5 217.0L753.5 214.0L758.5 206.0L758.5 203.0L760.5 199.0L760.5 190.0L754.5 177.0L752.0 175.5L750.0 172.5L745.0 169.5L736.0 168.5ZM423.5 170.0L428.0 170.5L428.0 169.5L424.0 169.5ZM681.5 171.0L678.5 172.0L678.5 177.0L679.5 178.0L679.5 182.0L681.5 187.0L681.5 192.0L682.5 193.0L683.5 200.0L685.0 201.5L696.0 196.5L702.5 189.0L702.5 187.0L703.5 186.0L703.5 180.0L702.5 179.0L702.5 177.0L695.0 170.5L682.0 170.5ZM263.5 172.0L279.0 172.5L279.0 171.5L264.0 171.5ZM418.5 172.0L416.5 179.0L411.5 188.0L411.5 190.0L408.5 195.0L408.5 197.0L407.0 198.5L404.0 198.5L403.0 197.5L398.0 197.5L397.0 198.5L395.0 198.5L389.5 203.0L387.5 207.0L387.5 209.0L390.0 210.5L393.5 205.0L397.0 202.5L405.5 203.0L401.5 217.0L397.5 225.0L396.5 230.0L394.5 232.0L397.0 234.5L399.5 233.0L399.5 231.0L402.5 225.0L403.5 218.0L406.5 213.0L407.5 207.0L409.0 204.5L411.5 205.0L420.0 220.5L422.5 219.0L422.5 216.0L426.5 207.0L430.0 203.5L431.0 203.5L433.5 213.0L435.5 216.0L435.5 218.0L440.5 229.0L440.5 232.0L439.5 233.0L442.0 235.5L445.0 234.5L446.5 232.0L444.5 230.0L443.5 225.0L439.5 217.0L439.5 214.0L437.5 211.0L434.5 201.0L436.0 199.5L442.0 199.5L445.5 201.0L446.5 206.0L444.0 206.5L442.5 208.0L442.5 210.0L445.0 212.5L449.0 211.5L450.5 209.0L450.5 201.0L448.0 197.5L444.0 195.5L439.0 195.5L438.0 194.5L433.0 196.5L431.5 195.0L431.5 193.0L428.5 188.0L428.5 186.0L422.5 175.0L422.5 173.0L421.0 171.5L419.0 171.5ZM71.5 174.0L79.0 174.5L79.0 173.5L72.0 173.5ZM734.5 174.0L730.5 178.0L730.5 180.0L732.5 184.0L737.5 187.0L736.0 189.5L733.0 189.5L729.0 184.5L727.0 183.5L725.5 185.0L721.5 195.0L721.5 207.0L723.5 211.0L729.0 216.5L733.0 218.5L740.0 218.5L745.0 216.5L752.5 209.0L754.5 205.0L754.5 203.0L756.5 199.0L756.5 190.0L749.5 178.0L746.0 174.5L744.0 173.5L735.0 173.5ZM419.5 180.0L415.5 188.0L415.5 190.0L411.5 197.0L411.5 200.0L416.5 205.0L417.5 208.0L420.0 210.5L421.5 209.0L423.5 204.0L428.5 200.0L428.5 197.0L422.5 185.0L422.5 182.0L421.5 180.0L420.0 179.5ZM572.5 185.0L571.5 188.0L568.5 192.0L566.5 199.0L564.5 201.0L560.5 209.0L556.5 213.0L554.5 217.0L554.5 219.0L550.5 227.0L548.5 229.0L548.5 231.0L546.5 233.0L532.5 262.0L522.5 277.0L514.5 294.0L512.5 296.0L504.5 312.0L503.5 316.0L497.5 325.0L496.5 330.0L494.5 332.0L485.5 350.0L480.5 357.0L476.5 367.0L464.5 383.0L463.5 387.0L461.5 389.0L459.5 395.0L455.5 400.0L455.5 402.0L447.5 417.0L447.5 419.0L443.5 424.0L440.5 430.0L440.5 432.0L437.5 436.0L437.5 438.0L442.0 442.5L443.0 442.5L445.5 437.0L450.5 430.0L452.5 425.0L457.5 418.0L458.5 415.0L460.5 412.0L462.5 411.0L466.5 405.0L468.5 400.0L472.5 395.0L478.5 382.0L482.5 377.0L492.5 357.0L492.5 355.0L495.5 351.0L495.5 349.0L510.5 321.0L512.5 314.0L514.5 312.0L515.5 308.0L518.5 304.0L519.5 300.0L521.5 298.0L524.5 291.0L526.5 289.0L535.5 269.0L541.5 261.0L547.5 247.0L552.5 240.0L553.5 236.0L555.5 233.0L555.5 231.0L559.5 224.0L559.5 222.0L564.5 213.0L566.5 211.0L566.5 209.0L570.5 201.0L570.5 199.0L573.5 192.0L573.5 188.0L574.5 187.0L574.5 185.0L573.0 184.5ZM581.5 190.0L580.5 194.0L581.5 196.0L583.5 197.0L585.5 205.0L588.0 206.5L588.5 201.0L587.5 200.0L585.5 192.0L584.0 189.5L582.0 189.5ZM594.5 210.0L593.5 211.0L593.5 215.0L595.5 217.0L598.5 223.0L598.5 225.0L601.0 227.5L603.0 227.5L603.5 225.0L597.5 214.0L597.5 210.0L595.0 209.5ZM581.5 217.0L578.5 222.0L576.5 230.0L571.5 240.0L570.5 247.0L568.5 250.0L565.5 261.0L563.5 264.0L562.5 269.0L559.5 274.0L558.5 279.0L553.5 288.0L552.5 292.0L549.5 296.0L546.5 306.0L543.5 309.0L538.5 319.0L536.5 326.0L534.5 328.0L528.5 340.0L528.5 342.0L525.5 347.0L525.5 349.0L517.5 360.0L515.5 367.0L511.5 372.0L511.5 374.0L507.5 380.0L505.5 385.0L503.5 387.0L498.5 398.0L496.5 400.0L494.5 404.0L494.5 406.0L478.5 430.0L477.5 433.0L468.5 444.0L459.5 458.0L459.5 460.0L461.5 463.0L464.0 464.5L465.5 463.0L468.5 456.0L470.5 454.0L472.5 449.0L474.5 447.0L476.5 442.0L484.5 430.0L486.5 426.0L486.5 424.0L490.5 418.0L490.5 416.0L495.5 409.0L497.5 404.0L505.5 392.0L510.5 381.0L515.5 374.0L522.5 358.0L530.5 347.0L533.5 340.0L541.5 328.0L544.5 322.0L544.5 320.0L551.5 307.0L551.5 305.0L555.5 299.0L556.5 293.0L558.5 291.0L558.5 289.0L564.5 278.0L569.5 262.0L573.5 254.0L574.5 249.0L584.5 229.0L584.5 226.0L585.5 225.0L585.5 222.0L587.5 217.0L582.0 216.5ZM571.5 220.0L568.5 223.0L566.5 230.0L563.5 233.0L561.5 244.0L558.5 250.0L558.5 252.0L555.5 256.0L552.5 266.0L547.5 275.0L545.5 277.0L544.5 280.0L542.5 282.0L541.5 287.0L537.5 293.0L535.5 298.0L533.5 300.0L532.5 304.0L530.5 306.0L521.5 324.0L520.5 329.0L518.5 331.0L515.5 337.0L514.5 343.0L509.5 352.0L509.5 354.0L502.5 368.0L500.5 370.0L495.5 380.0L493.5 382.0L489.5 391.0L486.5 394.0L486.5 396.0L478.5 408.0L478.5 410.0L476.5 412.0L470.5 424.0L465.5 431.0L460.5 442.0L456.5 446.0L452.5 452.0L456.0 456.5L459.5 451.0L459.5 449.0L462.5 447.0L465.5 442.0L469.5 438.0L481.5 420.0L482.5 417.0L485.5 414.0L496.5 392.0L498.5 390.0L499.5 386.0L501.5 384.0L507.5 372.0L509.5 370.0L510.5 366.0L514.5 358.0L519.5 351.0L530.5 329.0L530.5 327.0L534.5 321.0L535.5 317.0L537.5 315.0L537.5 313.0L541.5 307.0L541.5 305.0L543.5 303.0L543.5 301.0L547.5 294.0L547.5 292.0L549.5 290.0L549.5 288.0L552.5 283.0L554.5 276.0L557.5 271.0L558.5 266.0L561.5 261.0L566.5 244.0L571.5 233.0L571.5 230.0L574.5 225.0L575.5 220.0L572.0 219.5ZM562.5 225.0L560.5 229.0L561.0 231.5L563.5 227.0L563.0 224.5ZM826.5 226.0L829.0 226.5L829.0 225.5L827.0 225.5ZM717.5 228.0L725.0 228.5L725.0 227.5L718.0 227.5ZM732.5 228.0L735.0 228.5L735.0 227.5L733.0 227.5ZM636.5 229.0L648.0 229.5L648.0 228.5L637.0 228.5ZM578.5 230.0L581.0 230.5L581.0 229.5L579.0 229.5ZM589.5 230.0L596.0 230.5L596.0 229.5L590.0 229.5ZM559.5 232.0L560.0 234.5L560.0 231.5ZM558.5 235.0L556.5 239.0L556.5 241.0L548.5 253.0L548.5 255.0L546.5 258.0L545.5 262.0L537.5 273.0L537.5 275.0L532.5 285.0L530.5 287.0L524.5 299.0L524.5 301.0L515.5 317.0L514.5 322.0L508.5 333.0L506.5 335.0L506.5 337.0L500.5 349.0L498.5 351.0L496.5 358.0L494.5 360.0L493.5 365.0L486.5 375.0L484.5 381.0L479.5 388.0L468.5 409.0L458.5 422.0L457.5 425.0L452.5 432.0L449.5 439.0L447.5 441.0L445.5 446.0L447.0 446.5L449.0 449.5L450.0 449.5L461.5 433.0L469.5 416.0L474.5 410.0L477.5 402.0L484.5 392.0L491.5 378.0L497.5 369.0L511.5 340.0L511.5 337.0L514.5 332.0L514.5 330.0L531.5 296.0L537.5 287.0L539.5 280.0L545.5 272.0L545.5 270.0L549.5 263.0L549.5 261.0L552.5 256.0L552.5 254.0L555.5 249.0L556.5 244.0L558.5 241.0L558.5 239.0L559.5 238.0L559.0 234.5ZM79.5 236.0L87.0 236.5L87.0 235.5L80.0 235.5ZM609.5 239.0L607.5 241.0L607.5 244.0L610.0 244.5L611.5 246.0L615.5 259.0L618.0 261.5L620.0 261.5L620.5 259.0L618.5 257.0L615.5 251.0L615.5 248.0L614.5 247.0L613.5 242.0L612.5 240.0L610.0 238.5ZM800.5 239.0L798.5 242.0L795.0 245.5L794.0 245.5L763.5 277.0L760.5 282.0L751.5 292.0L751.5 295.0L742.5 303.0L742.5 304.0L730.5 318.0L725.5 327.0L721.5 332.0L720.5 335.0L718.5 337.0L713.5 348.0L709.5 353.0L707.5 358.0L694.5 375.0L692.5 381.0L690.0 381.5L688.5 383.0L691.5 389.0L693.0 389.5L703.5 372.0L709.5 366.0L715.5 357.0L719.5 353.0L719.5 351.0L734.5 332.0L739.5 324.0L743.5 320.0L744.5 317.0L752.5 305.0L759.5 297.0L761.5 293.0L770.5 282.0L774.5 275.0L780.0 268.5L784.0 265.5L788.0 265.5L790.5 263.0L796.5 250.0L798.5 248.0L798.5 246.0L801.5 241.0L801.0 238.5ZM537.5 241.0L533.5 246.0L525.5 261.0L516.5 273.0L513.5 280.0L506.5 290.0L505.5 294.0L503.5 296.0L499.5 305.0L493.5 314.0L490.5 321.0L484.5 329.0L477.5 343.0L473.5 348.0L473.5 350.0L467.5 362.0L465.5 364.0L462.5 370.0L462.5 372.0L459.5 376.0L459.5 378.0L457.5 382.0L451.5 391.0L451.5 393.0L447.5 401.0L445.5 403.0L441.5 413.0L439.5 415.0L437.5 423.0L433.5 430.0L434.0 434.5L436.5 432.0L436.5 430.0L441.5 420.0L443.5 418.0L450.5 404.0L450.5 402.0L453.5 398.0L461.5 381.0L470.5 369.0L475.5 359.0L477.5 357.0L477.5 355.0L479.5 353.0L481.5 348.0L486.5 341.0L486.5 339.0L488.5 337.0L488.5 335.0L492.5 329.0L493.5 325.0L497.5 320.0L499.5 316.0L499.5 314.0L506.5 300.0L508.5 298.0L518.5 277.0L521.5 274.0L528.5 260.0L530.5 258.0L532.5 254.0L532.5 252.0L538.5 242.0L538.0 240.5ZM591.5 243.0L590.5 245.0L590.5 249.0L588.5 251.0L588.5 253.0L586.5 256.0L584.5 263.0L581.5 268.0L581.5 270.0L579.5 272.0L579.5 274.0L574.5 284.0L572.5 286.0L571.5 291.0L567.5 298.0L566.5 302.0L564.5 304.0L561.5 314.0L552.5 331.0L551.5 337.0L547.5 342.0L547.5 344.0L542.5 355.0L535.5 365.0L532.5 372.0L518.5 391.0L515.5 398.0L512.5 401.0L510.5 406.0L508.5 408.0L508.5 410.0L506.5 414.0L503.5 417.0L502.5 420.0L498.5 424.0L495.5 431.0L486.5 444.0L482.5 452.0L482.5 454.0L479.5 461.0L475.5 466.0L475.5 468.0L472.5 473.0L472.5 475.0L475.5 477.0L476.5 480.0L479.0 482.5L482.5 478.0L485.5 472.0L485.5 470.0L487.5 467.0L488.5 463.0L509.5 432.0L517.5 416.0L525.5 405.0L533.5 390.0L539.5 382.0L541.5 377.0L548.5 367.0L554.5 355.0L554.5 353.0L559.5 346.0L559.0 343.5L558.0 344.5L555.0 344.5L550.5 351.0L547.5 358.0L545.5 360.0L545.5 362.0L543.5 364.0L539.5 372.0L539.5 374.0L534.5 381.0L531.5 388.0L525.5 396.0L515.5 415.0L513.5 416.0L511.5 421.0L508.5 424.0L504.5 433.0L502.5 435.0L501.5 439.0L494.5 448.0L492.5 453.0L486.5 462.0L482.5 470.0L481.5 476.0L479.0 478.5L478.0 478.5L476.5 476.0L479.5 470.0L480.5 465.0L486.5 456.0L490.5 447.0L495.5 441.0L496.5 438.0L501.5 431.0L505.5 422.0L516.5 406.0L519.5 399.0L521.5 397.0L523.5 392.0L525.5 390.0L534.5 373.0L536.5 371.0L536.5 369.0L538.5 367.0L540.5 363.0L540.5 361.0L542.5 359.0L550.5 343.0L554.5 338.0L563.5 321.0L567.5 316.0L569.5 312.0L569.5 310.0L579.5 295.0L579.5 292.0L582.5 288.0L583.5 283.0L585.5 280.0L586.5 275.0L590.5 267.0L593.5 256.0L595.5 253.0L595.5 251.0L597.5 247.0L597.5 244.0L596.0 242.5L592.0 242.5ZM585.5 244.0L582.0 244.5L577.5 252.0L575.5 260.0L570.5 270.0L570.5 273.0L568.5 276.0L568.5 278.0L564.5 286.0L562.5 288.0L561.5 293.0L558.5 299.0L558.5 302.0L549.5 318.0L547.5 325.0L545.5 327.0L543.5 332.0L540.5 335.0L539.5 339.0L537.5 341.0L535.5 346.0L531.5 351.0L530.5 354.0L527.5 357.0L518.5 377.0L510.5 389.0L508.5 395.0L499.5 408.0L495.5 417.0L490.5 424.0L488.5 428.0L488.5 430.0L484.5 436.0L484.5 438.0L477.5 448.0L470.5 462.0L468.5 464.0L467.5 468.0L468.5 470.0L470.0 470.5L474.5 460.0L476.5 458.0L479.5 452.0L480.5 448.0L482.5 446.0L483.5 442.0L495.5 424.0L496.5 420.0L503.5 411.0L511.5 395.0L515.5 390.0L516.5 387.0L520.5 383.0L525.5 374.0L529.5 369.0L530.5 366.0L532.5 364.0L533.5 361.0L539.5 353.0L540.5 349.0L547.5 335.0L549.5 328.0L556.5 316.0L556.5 314.0L559.5 309.0L561.5 302.0L566.5 293.0L566.5 291.0L568.5 289.0L568.5 287.0L572.5 280.0L572.5 278.0L574.5 276.0L576.5 269.0L580.5 263.0L584.5 250.0L587.5 245.0L587.5 244.0L586.0 243.5ZM600.5 266.0L595.0 266.5L594.5 270.0L591.5 272.0L591.5 275.0L586.5 286.0L585.5 292.0L574.5 309.0L570.5 317.0L570.5 318.0L572.0 318.5L578.5 310.0L582.5 303.0L595.5 289.0L601.5 278.0L603.5 276.0L606.5 266.0L601.0 265.5ZM599.5 268.0L599.5 269.0L592.5 277.0L592.5 281.0L587.5 290.0L587.5 291.0L590.0 292.5L595.5 283.0L595.5 279.0L602.5 271.0L602.5 269.0L600.0 267.5ZM784.5 270.0L782.5 273.0L776.5 278.0L770.5 289.0L762.5 298.0L757.5 306.0L752.5 311.0L751.5 314.0L749.5 316.0L749.5 318.0L745.5 324.0L740.5 329.0L737.5 333.0L736.5 336.0L731.5 341.0L730.5 344.0L727.5 347.0L724.5 353.0L704.5 378.0L701.5 384.0L697.5 388.0L694.5 394.0L694.5 398.0L695.5 399.0L695.5 401.0L698.0 401.5L700.5 396.0L703.5 393.0L711.5 380.0L718.5 372.0L724.5 363.0L725.5 360.0L729.5 356.0L740.5 340.0L749.5 330.0L750.5 327.0L762.5 313.0L765.5 309.0L766.5 306.0L771.5 301.0L775.5 294.0L778.5 291.0L780.5 286.0L788.5 274.0L787.5 270.0L785.0 269.5ZM622.5 275.0L621.5 276.0L621.5 280.0L622.5 281.0L622.5 289.0L625.0 289.5L626.5 287.0L626.5 285.0L625.5 284.0L625.5 277.0L624.5 275.0L623.0 274.5ZM793.5 276.0L792.5 279.0L790.0 280.5L784.5 287.0L784.5 289.0L778.5 296.0L777.5 299.0L772.5 306.0L767.5 311.0L751.5 333.0L743.5 342.0L740.5 348.0L736.5 352.0L735.5 355.0L730.5 360.0L725.5 369.0L707.5 392.0L706.5 395.0L699.5 405.0L698.5 408.0L700.5 410.0L701.5 414.0L703.5 414.0L703.5 412.0L708.5 403.0L724.5 382.0L730.5 373.0L731.5 370.0L738.5 362.0L740.5 358.0L744.5 354.0L746.5 350.0L750.5 346.0L752.5 342.0L762.5 330.0L771.5 317.0L775.5 313.0L794.5 284.0L798.0 280.5L799.5 282.0L798.5 289.0L791.5 295.0L790.5 298.0L786.5 302.0L780.5 311.0L779.5 314.0L770.5 324.0L768.5 328.0L758.5 340.0L746.5 358.0L743.5 360.0L740.5 366.0L736.5 370.0L732.5 377.0L729.5 380.0L726.5 386.0L717.5 397.0L709.5 409.0L709.5 411.0L704.5 418.0L704.5 420.0L708.0 425.5L715.5 411.0L724.5 399.0L725.5 396.0L740.5 378.0L742.5 374.0L746.5 370.0L773.5 333.0L777.0 329.5L779.0 329.5L785.5 322.0L787.5 315.0L789.5 312.0L789.5 308.0L788.5 306.0L798.5 292.0L803.5 282.0L803.5 280.0L800.0 276.5L798.0 275.5L794.0 275.5ZM950.5 285.0L959.0 285.5L959.0 284.5L951.0 284.5ZM864.5 287.0L867.0 287.5L867.0 286.5L865.0 286.5ZM862.5 310.0L857.0 310.5L850.0 313.5L844.0 312.5L844.0 315.5L851.0 316.5L857.0 313.5L863.0 313.5L865.0 312.5L866.5 311.0L865.0 309.5L863.0 309.5ZM631.5 316.0L631.5 324.0L632.5 325.0L632.5 333.0L633.5 334.0L633.5 338.0L634.5 339.0L634.5 341.0L637.0 342.5L637.5 336.0L636.5 335.0L635.5 326.0L634.5 325.0L635.5 318.0L634.0 315.5L632.0 315.5ZM876.5 319.0L876.5 322.0L878.0 322.5L889.0 333.5L892.0 334.5L893.5 332.0L891.0 330.5L879.0 318.5L877.0 318.5ZM825.5 320.0L812.0 329.5L805.0 332.5L802.5 335.0L802.5 336.0L805.0 337.5L810.0 333.5L813.0 332.5L822.0 326.5L828.5 320.0L826.0 319.5ZM606.5 328.0L601.5 334.0L600.5 338.0L595.5 347.0L594.5 352.0L590.5 357.0L590.5 359.0L588.5 361.0L584.5 369.0L581.5 372.0L580.5 376.0L574.5 384.0L571.5 391.0L567.5 396.0L566.5 399.0L561.5 405.0L557.5 414.0L553.5 419.0L552.5 422.0L545.5 431.0L544.5 434.0L535.5 447.0L531.5 455.0L525.5 463.0L525.5 465.0L522.5 468.0L520.5 472.0L520.5 474.0L514.5 482.0L513.5 485.0L505.5 497.0L502.5 503.0L502.5 505.0L500.5 507.0L500.5 509.0L504.0 512.5L508.5 507.0L514.5 495.0L518.5 490.0L523.5 481.0L526.5 478.0L527.5 475.0L529.5 473.0L534.5 464.0L544.5 451.0L548.5 443.0L558.5 428.0L565.5 414.0L575.5 400.0L580.5 390.0L588.5 379.0L605.5 345.0L607.0 343.5L609.5 344.0L608.5 350.0L604.5 356.0L604.5 358.0L601.5 361.0L599.5 365.0L599.5 367.0L597.5 369.0L597.5 371.0L586.5 387.0L577.5 404.0L574.5 407.0L571.5 413.0L569.5 415.0L566.5 422.0L561.5 428.0L556.5 439.0L553.5 442.0L552.5 445.0L545.5 455.0L546.0 456.5L548.5 454.0L549.5 451.0L556.5 442.0L557.5 439.0L563.5 431.0L564.5 428.0L577.5 411.0L583.5 402.0L584.5 399.0L588.5 394.0L589.5 391.0L594.5 385.0L603.5 368.0L606.0 366.5L607.5 368.0L607.5 372.0L603.5 376.0L598.5 386.0L586.5 403.0L585.5 406.0L577.5 416.0L572.5 425.0L565.5 433.0L564.5 436.0L560.5 441.0L559.5 444.0L556.5 447.0L555.5 450.0L551.5 454.0L549.5 459.0L546.5 462.0L542.5 468.0L539.5 475.0L536.5 478.0L535.5 481.0L531.5 486.0L523.5 502.0L517.5 509.0L513.5 519.0L513.5 523.0L518.0 528.5L519.5 526.0L519.5 523.0L522.5 520.0L526.5 511.0L532.5 503.0L535.5 497.0L540.5 491.0L540.5 489.0L543.5 486.0L548.5 476.0L554.5 469.0L558.5 461.0L562.5 456.0L562.5 454.0L568.5 446.0L569.5 443.0L571.5 441.0L572.5 438.0L578.5 429.0L587.5 417.0L588.5 414.0L592.5 409.0L599.5 396.0L609.5 381.0L612.5 378.0L614.5 374.0L616.0 372.5L619.0 372.5L620.5 371.0L614.0 370.5L610.0 368.5L607.5 366.0L607.5 358.0L610.5 350.0L612.5 332.0L610.0 327.5L607.0 327.5ZM594.5 331.0L591.5 333.0L590.5 337.0L585.5 342.0L584.5 346.0L579.5 356.0L577.5 358.0L574.5 365.0L572.5 367.0L569.5 374.0L567.5 376.0L565.5 381.0L559.5 388.0L557.5 395.0L551.5 401.0L547.5 409.0L544.5 412.0L543.5 415.0L535.5 426.0L534.5 429.0L525.5 441.0L518.5 455.0L516.5 457.0L516.5 459.0L514.5 461.0L510.5 470.0L502.5 482.0L502.5 484.0L496.5 491.0L495.5 495.0L493.5 498.0L493.5 500.0L497.0 503.5L498.0 503.5L501.5 496.0L508.5 487.0L508.5 485.0L510.5 481.0L520.5 466.0L526.5 454.0L529.5 451.0L536.5 438.0L543.5 429.0L544.5 426.0L547.5 423.0L552.5 413.0L556.5 408.0L559.5 401.0L564.5 395.0L568.5 387.0L572.5 382.0L575.5 375.0L577.5 373.0L584.5 360.0L588.5 355.0L588.5 353.0L590.5 351.0L590.5 349.0L592.5 347.0L594.5 340.0L598.5 333.0L598.0 330.5L595.0 330.5ZM581.5 334.0L576.5 336.0L578.5 341.0L577.0 342.5L574.5 343.0L567.5 358.0L564.5 361.0L560.5 370.0L558.5 372.0L556.5 377.0L554.5 379.0L550.5 388.0L546.5 393.0L546.5 395.0L542.5 400.0L540.5 405.0L537.5 408.0L533.5 417.0L527.5 425.0L527.5 427.0L523.5 433.0L517.5 440.0L515.5 445.0L511.5 451.0L506.5 457.0L504.5 462.0L501.5 465.0L498.5 472.0L496.5 474.0L496.5 476.0L494.5 478.0L492.5 483.0L490.5 485.0L487.5 491.0L488.5 495.0L490.0 495.5L491.5 494.0L491.5 492.0L500.5 479.0L501.5 476.0L503.5 474.0L505.5 469.0L507.5 467.0L507.5 465.0L513.5 456.0L518.5 445.0L523.5 439.0L524.5 436.0L530.5 428.0L533.5 421.0L536.5 418.0L537.5 415.0L540.5 412.0L547.5 400.0L555.5 390.0L557.5 385.0L559.5 383.0L560.5 380.0L571.5 363.0L575.5 355.0L575.5 353.0L577.5 351.0L583.5 338.0L586.5 334.0L582.0 333.5ZM572.5 337.0L571.0 338.5L569.0 338.5L565.5 342.0L563.5 347.0L560.5 350.0L556.5 358.0L554.5 365.0L551.5 368.0L542.5 385.0L539.5 388.0L536.5 394.0L534.5 396.0L531.5 403.0L521.5 418.0L517.5 427.0L514.5 430.0L512.5 436.0L507.5 441.0L503.5 449.0L495.5 461.0L492.5 464.0L492.5 466.0L488.5 473.0L488.5 475.0L483.5 484.0L484.0 488.5L487.5 484.0L497.5 464.0L503.5 456.0L504.5 453.0L512.5 442.0L517.5 433.0L523.5 426.0L524.5 423.0L528.5 418.0L532.5 409.0L540.5 398.0L546.5 385.0L553.5 375.0L553.5 373.0L555.5 369.0L557.5 367.0L559.5 362.0L563.5 357.0L566.5 350.0L568.5 348.0L573.5 338.0L573.0 336.5ZM774.5 338.0L772.5 340.0L770.5 345.0L761.5 355.0L757.5 362.0L750.5 370.0L748.5 374.0L744.5 378.0L734.5 392.0L729.5 397.0L723.5 407.0L720.5 410.0L713.5 424.0L710.5 428.0L710.5 431.0L713.0 434.5L714.5 433.0L714.5 430.0L717.5 424.0L730.5 408.0L734.5 401.0L743.5 390.0L747.5 383.0L759.5 370.0L762.5 365.0L772.5 354.0L773.5 352.0L772.5 350.0L772.5 345.0L775.5 340.0L775.0 337.5ZM792.5 347.0L783.5 355.0L782.5 359.0L786.0 359.5L789.5 354.0L793.0 350.5L796.5 349.0L796.0 346.5L793.0 346.5ZM911.5 348.0L922.0 348.5L922.0 347.5L912.0 347.5ZM906.5 350.0L903.5 351.0L908.5 360.0L908.5 362.0L911.5 369.0L914.0 369.5L914.5 367.0L912.5 364.0L911.5 358.0L907.0 349.5ZM715.5 351.0L718.0 351.5L718.0 350.5L716.0 350.5ZM638.5 352.0L645.0 352.5L645.0 351.5L639.0 351.5ZM583.5 353.0L586.0 353.5L586.0 352.5L584.0 352.5ZM639.5 357.0L639.5 359.0L638.5 360.0L640.5 363.0L641.5 368.0L644.5 372.0L645.5 375.0L651.0 379.5L654.0 379.5L654.5 377.0L652.0 376.5L645.5 369.0L643.5 365.0L642.5 358.0L640.0 356.5ZM770.5 361.0L769.5 364.0L766.5 366.0L763.5 371.0L750.5 385.0L748.5 389.0L743.5 395.0L742.5 398.0L736.5 404.0L730.5 414.0L721.5 425.0L715.5 437.0L715.5 440.0L718.0 441.5L722.5 433.0L725.5 430.0L739.5 408.0L743.5 404.0L743.5 403.0L747.5 400.0L747.5 399.0L763.5 381.0L771.5 370.0L774.5 368.0L772.5 361.0L771.0 360.5ZM850.5 361.0L844.0 362.5L843.5 365.0L833.5 374.0L831.5 378.0L824.5 386.0L818.5 396.0L810.5 405.0L807.5 411.0L803.5 414.0L800.5 420.0L793.5 427.0L788.5 435.0L776.5 449.0L771.5 457.0L762.5 467.0L759.5 473.0L756.5 476.0L751.5 485.0L745.5 493.0L745.5 495.0L744.5 496.0L745.5 497.0L745.5 499.0L748.5 499.0L749.5 496.0L751.5 495.0L765.5 476.0L770.5 471.0L770.5 470.0L775.5 465.0L780.5 458.0L787.5 451.0L798.5 436.0L802.5 432.0L807.5 423.0L817.5 412.0L824.5 401.0L840.5 381.0L844.5 375.0L846.5 371.0L846.5 369.0L850.0 365.5L851.0 365.5L851.5 370.0L850.5 371.0L850.5 373.0L846.5 377.0L845.5 380.0L842.5 383.0L838.5 390.0L827.5 402.0L818.5 416.0L808.5 427.0L804.5 435.0L792.5 449.0L791.5 452.0L780.5 463.0L769.5 478.0L764.5 483.0L764.5 484.0L750.5 501.0L749.5 506.0L751.0 506.5L753.5 502.0L758.5 497.0L761.5 492.0L767.5 486.0L776.5 474.0L803.5 446.0L803.5 445.0L809.5 439.0L818.5 427.0L831.5 414.0L831.5 413.0L843.5 400.0L843.5 399.0L848.5 394.0L850.5 390.0L853.5 387.0L855.5 384.0L854.0 382.5L850.0 382.5L848.5 380.0L852.5 375.0L856.5 362.0L851.0 360.5ZM837.5 363.0L834.0 363.5L833.0 364.5L823.0 364.5L822.0 365.5L812.0 367.5L810.5 369.0L809.5 371.0L810.5 374.0L809.5 375.0L808.5 380.0L806.0 382.5L805.5 379.0L805.0 378.5L803.5 380.0L802.5 384.0L799.5 387.0L782.5 413.0L778.5 417.0L774.5 425.0L739.5 470.0L736.5 476.0L736.5 480.0L741.5 490.0L743.0 490.5L747.5 483.0L753.5 476.0L754.5 473.0L757.5 470.0L760.5 464.0L765.5 459.0L780.5 438.0L782.0 437.5L786.5 432.0L787.5 429.0L796.5 419.0L799.5 415.0L800.5 412.0L810.5 401.0L814.5 394.0L826.5 379.0L827.5 376.0L832.5 369.0L836.0 365.5L839.5 364.0L839.5 363.0L838.0 362.5ZM822.5 367.0L819.5 370.0L815.5 377.0L810.5 383.0L809.5 386.0L801.5 396.0L796.5 405.0L790.5 413.0L783.5 420.0L768.5 442.0L756.5 455.0L747.5 469.0L743.5 473.0L743.5 475.0L740.5 481.0L740.5 484.0L743.0 485.5L747.5 475.0L749.5 473.0L749.5 471.0L755.5 462.0L770.5 446.0L771.5 443.0L777.5 434.0L798.5 408.0L799.5 405.0L804.5 399.0L807.5 393.0L811.5 389.0L817.5 380.0L818.5 377.0L820.0 375.5L821.0 375.5L822.0 377.5L823.5 376.0L824.5 374.0L824.5 367.0L823.0 366.5ZM625.5 370.0L622.0 374.5L618.0 376.5L614.5 380.0L608.5 389.0L608.5 391.0L600.5 401.0L597.5 408.0L589.5 419.0L588.5 422.0L580.5 432.0L575.5 441.0L572.5 444.0L571.5 448.0L569.5 450.0L568.5 453.0L559.5 466.0L555.5 474.0L548.5 483.0L546.5 488.0L542.5 493.0L541.5 496.0L535.5 504.0L534.5 507.0L524.5 522.0L521.5 529.0L521.5 532.0L524.0 533.5L526.5 525.0L535.5 513.0L544.5 495.0L553.5 484.0L564.5 467.0L573.5 457.0L576.5 451.0L579.5 448.0L585.5 438.0L597.5 422.0L601.5 414.0L605.5 409.0L607.5 404.0L617.5 391.0L623.5 379.0L628.5 373.0L628.5 371.0L626.0 369.5ZM801.5 373.0L794.5 375.0L796.5 379.0L796.5 382.0L795.0 382.5L794.0 381.5L792.0 381.5L790.5 383.0L788.5 387.0L780.5 396.0L777.5 402.0L771.5 409.0L770.5 412.0L767.5 415.0L762.5 424.0L743.5 447.0L740.5 455.0L738.5 457.0L731.5 470.0L731.5 471.0L734.0 472.5L735.5 469.0L746.5 456.0L746.5 455.0L751.5 450.0L752.5 447.0L764.5 433.0L775.5 416.0L778.5 413.0L778.5 411.0L788.5 398.0L798.5 383.0L800.5 378.0L803.5 375.0L804.5 373.0L802.0 372.5ZM631.5 374.0L626.5 381.0L621.5 391.0L611.5 405.0L607.5 413.0L603.5 417.0L603.5 419.0L600.5 423.0L600.5 425.0L599.0 425.5L594.5 431.0L589.5 440.0L586.5 443.0L582.5 450.0L578.5 454.0L575.5 460.0L570.5 465.0L567.5 471.0L560.5 479.0L558.5 483.0L550.5 493.0L549.5 496.0L543.5 504.0L538.5 515.0L534.5 519.0L530.5 525.0L528.5 530.0L528.5 533.0L527.5 534.0L527.5 538.0L535.0 548.5L540.5 541.0L542.5 536.0L544.5 534.0L549.5 524.0L552.5 521.0L553.5 518.0L563.5 506.0L568.5 497.0L574.5 490.0L575.5 487.0L578.5 484.0L579.5 481.0L586.5 472.0L587.5 469.0L590.5 466.0L596.5 454.0L605.5 446.0L606.5 442.0L613.5 433.0L619.5 420.0L622.5 416.0L622.5 413.0L626.5 407.0L623.5 407.0L622.5 410.0L615.5 418.0L613.5 422.0L608.5 428.0L607.5 431.0L602.5 436.0L599.5 442.0L591.5 451.0L579.5 469.0L572.5 477.0L569.5 483.0L563.5 491.0L562.5 494.0L557.5 499.0L554.5 505.0L544.5 518.0L541.5 524.0L541.5 526.0L537.5 532.0L537.5 535.0L535.5 537.0L535.5 539.0L534.5 540.0L535.5 541.0L533.0 542.5L530.5 536.0L534.5 531.0L542.5 515.0L557.5 495.0L558.5 492.0L561.5 489.0L563.5 484.0L569.5 475.0L574.5 470.0L575.5 467.0L581.5 460.0L587.5 450.0L595.5 441.0L599.5 433.0L610.5 420.0L614.5 413.0L622.5 404.0L622.5 403.0L626.0 399.5L628.0 399.5L629.5 398.0L629.5 396.0L631.5 393.0L632.5 386.0L633.5 385.0L633.5 375.0L632.0 373.5ZM775.5 374.0L769.5 379.0L764.5 386.0L758.5 392.0L753.5 399.0L749.5 402.0L749.5 403.0L737.5 417.0L736.5 420.0L727.5 432.0L725.5 437.0L719.5 446.0L721.5 451.0L723.0 451.5L727.5 444.0L733.5 437.0L739.5 427.0L742.5 424.0L744.5 420.0L759.5 404.0L762.5 399.0L769.5 392.0L774.5 384.0L780.5 378.0L779.5 375.0L778.0 373.5L776.0 373.5ZM787.5 377.0L785.0 381.5L782.0 381.5L780.5 383.0L778.5 387.0L767.5 399.0L765.5 403.0L763.5 404.0L758.5 411.0L749.5 420.0L729.5 448.0L725.5 458.0L725.5 460.0L729.0 466.5L736.5 453.0L738.5 451.0L738.5 449.0L742.5 442.0L749.5 435.0L749.5 434.0L757.5 425.0L760.5 419.0L772.5 401.0L790.5 378.0L790.0 376.5L788.0 376.5ZM880.5 377.0L877.0 377.5L875.5 379.0L880.0 379.5L880.5 383.0L873.5 389.0L869.5 396.0L863.5 403.0L863.5 404.0L865.0 404.5L869.0 401.5L876.0 398.5L880.5 394.0L883.5 387.0L883.5 378.0L881.0 376.5ZM871.5 379.0L868.5 381.0L847.5 409.0L839.5 417.0L834.5 424.0L825.5 433.0L820.5 440.0L805.5 456.0L799.5 465.0L793.5 471.0L792.5 474.0L789.5 477.0L785.5 484.0L776.5 496.0L760.5 511.0L757.5 516.0L757.5 519.0L760.0 522.5L776.5 505.0L780.5 499.0L789.5 490.0L789.5 489.0L792.5 487.0L792.5 486.0L803.5 474.0L812.5 462.0L820.5 455.0L832.5 437.0L838.5 431.0L840.5 427.0L844.5 423.0L847.5 418.0L857.5 407.0L859.5 403.0L863.5 399.0L867.5 392.0L873.5 385.0L873.5 383.0L872.5 382.0L873.5 381.0L873.5 379.0L872.0 378.5ZM674.5 387.0L672.0 387.5L668.0 390.5L663.0 389.5L661.5 391.0L661.5 394.0L664.0 394.5L665.0 393.5L670.0 392.5L673.0 390.5L678.0 389.5L678.5 387.0L675.0 386.5ZM856.5 387.0L853.5 392.0L844.5 402.0L842.5 406.0L816.5 434.0L816.5 435.0L810.5 441.0L808.5 445.0L803.5 450.0L798.5 457.0L797.0 457.5L796.5 459.0L795.0 459.5L792.5 463.0L781.0 474.5L779.5 475.0L776.5 480.0L771.5 485.0L769.5 489.0L759.5 500.0L752.5 510.0L752.5 512.0L755.0 513.5L756.5 510.0L772.5 495.0L779.5 485.0L787.5 476.0L788.5 473.0L803.5 453.0L821.5 434.0L827.5 426.0L838.5 415.0L840.5 411.0L848.5 403.0L857.5 391.0L858.5 387.0L857.0 386.5ZM363.5 390.0L362.5 392.0L364.5 395.0L368.5 399.0L375.5 409.0L377.0 410.5L379.0 410.5L379.5 403.0L377.0 401.5L366.0 389.5L364.0 389.5ZM924.5 393.0L923.5 394.0L923.5 396.0L925.5 399.0L925.5 402.0L926.5 403.0L926.5 413.0L929.0 413.5L930.5 411.0L930.5 406.0L928.5 401.0L929.5 396.0L928.0 393.5L926.0 393.5L925.0 392.5ZM876.5 410.0L891.0 410.5L891.0 409.5L877.0 409.5ZM387.5 416.0L396.0 416.5L396.0 415.5L388.0 415.5ZM421.5 416.0L425.0 416.5L425.0 415.5L422.0 415.5ZM426.5 416.0L430.0 416.5L430.0 415.5L427.0 415.5ZM391.5 423.0L388.5 425.0L388.5 428.0L397.5 438.0L397.5 439.0L399.0 440.5L401.0 440.5L401.5 436.0L398.5 430.0L392.0 422.5ZM848.5 423.0L843.5 428.0L836.5 439.0L830.5 445.0L822.5 457.0L811.5 467.0L805.5 475.0L805.5 477.0L800.5 482.0L800.5 483.0L762.5 525.0L762.5 527.0L764.5 529.0L765.5 532.0L767.0 532.5L768.5 531.0L769.5 527.0L772.5 524.0L774.5 520.0L783.5 511.0L783.5 510.0L788.5 506.0L788.5 505.0L795.5 498.0L799.5 492.0L806.5 485.0L806.5 484.0L813.5 476.0L815.5 472.0L832.5 453.0L836.5 446.0L854.5 424.0L849.0 422.5ZM918.5 431.0L917.5 432.0L917.5 434.0L911.5 440.0L911.5 442.0L914.0 442.5L924.5 432.0L924.0 430.5L919.0 430.5ZM886.5 437.0L880.5 443.0L871.5 455.0L863.5 463.0L863.5 464.0L856.5 471.0L856.5 472.0L840.5 487.0L840.5 488.0L823.5 505.0L823.5 506.0L813.5 517.0L808.5 525.0L805.5 528.0L804.5 532.0L802.5 533.0L804.0 533.5L805.0 535.5L807.5 533.0L812.5 524.0L825.5 509.0L825.5 508.0L865.5 467.0L865.5 466.0L873.5 458.0L876.5 453.0L883.5 446.0L883.5 445.0L886.0 442.5L888.0 442.5L889.5 441.0L889.5 437.0L887.0 436.5ZM624.5 453.0L623.0 454.5L619.0 453.5L617.5 455.0L615.5 460.0L611.5 464.0L608.5 471.0L603.5 476.0L597.5 487.0L589.5 496.0L585.5 503.0L573.5 517.0L564.5 531.0L559.5 536.0L552.5 547.0L549.5 550.0L547.5 555.0L544.5 559.0L544.5 561.0L546.5 564.0L549.0 565.5L552.5 559.0L562.5 547.0L572.5 532.0L579.5 524.0L583.5 516.0L589.5 509.0L592.5 503.0L600.5 491.0L603.5 488.0L614.5 470.0L627.5 453.0L625.0 452.5ZM634.5 453.0L633.0 456.5L631.0 455.5L628.5 457.0L624.5 464.0L617.5 473.0L614.5 479.0L599.5 499.0L597.5 504.0L594.5 507.0L589.5 516.0L582.5 524.0L578.5 532.0L570.5 541.0L563.5 552.0L550.5 569.0L550.5 570.0L554.0 573.5L557.5 568.0L569.5 555.0L569.5 554.0L579.5 542.0L583.5 536.0L583.5 534.0L587.5 530.0L588.5 527.0L592.5 523.0L594.5 519.0L602.5 510.0L610.5 498.0L617.5 490.0L621.5 482.0L635.5 461.0L642.5 454.0L639.0 452.5L635.0 452.5ZM602.5 454.0L597.5 459.0L589.5 475.0L581.5 484.0L578.5 490.0L571.5 499.0L567.5 506.0L564.5 509.0L559.5 518.0L551.5 527.0L549.5 532.0L544.5 539.0L538.5 551.0L538.5 553.0L541.0 556.5L549.5 545.0L551.5 540.0L563.5 524.0L567.5 520.0L568.5 517.0L586.5 495.0L590.5 488.0L596.5 481.0L599.5 475.0L605.5 468.0L606.5 465.0L614.5 454.0L608.0 453.5L607.0 454.5L605.0 454.5L603.0 453.5ZM417.5 457.0L415.5 459.0L415.5 463.0L417.0 463.5L417.5 465.0L420.0 466.5L425.0 472.5L427.0 472.5L428.5 470.0L424.5 466.0L418.0 456.5ZM544.5 457.0L541.5 461.0L542.0 462.5L545.5 458.0L545.0 456.5ZM645.5 458.0L644.0 458.5L637.5 465.0L632.5 472.0L631.5 475.0L626.5 481.0L620.5 492.0L612.5 501.0L610.5 505.0L601.5 517.0L596.5 522.0L594.5 526.0L586.5 536.0L586.5 538.0L584.5 541.0L581.5 544.0L573.5 556.0L565.5 564.0L565.5 565.0L558.5 573.0L557.5 578.0L560.0 580.5L561.5 580.0L563.5 576.0L570.5 568.0L578.5 556.0L582.5 552.0L582.5 551.0L584.5 550.0L593.5 538.0L597.5 531.0L603.5 525.0L606.5 520.0L617.5 507.0L618.5 504.0L632.5 486.0L633.5 483.0L638.5 478.0L640.5 474.0L643.0 471.5L646.0 471.5L649.5 473.0L649.0 474.5L645.0 475.5L641.5 479.0L639.5 483.0L626.5 499.0L620.5 509.0L607.5 524.0L603.5 531.0L597.5 537.0L594.5 543.0L576.5 564.0L565.5 581.0L564.5 585.0L567.0 586.5L570.5 582.0L573.5 576.0L581.5 567.0L583.5 563.0L589.5 556.0L597.5 544.0L602.5 539.0L605.5 533.0L608.5 530.0L610.5 526.0L613.5 523.0L621.5 511.0L633.5 498.0L633.5 497.0L651.5 476.0L652.5 474.0L652.5 469.0L648.5 459.0L646.0 457.5ZM540.5 463.0L534.5 471.0L528.5 482.0L520.5 492.0L511.5 509.0L509.5 511.0L507.5 517.0L510.0 517.5L514.5 507.0L520.5 500.0L528.5 484.0L530.5 482.0L530.5 480.0L540.5 466.0L541.5 464.0L541.0 462.5ZM892.5 464.0L889.5 468.0L884.5 472.0L882.5 476.0L874.5 484.0L874.5 485.0L864.0 495.5L858.0 499.5L857.5 501.0L854.0 503.5L852.5 506.0L836.5 522.0L836.5 523.0L834.5 524.0L831.5 528.0L831.5 530.0L830.5 531.0L832.0 533.5L834.0 533.5L835.5 529.0L850.5 513.0L850.5 512.0L861.0 501.5L864.0 500.5L868.0 497.5L884.5 479.0L884.5 478.0L893.0 469.5L895.0 469.5L896.5 468.0L895.5 466.0L896.5 464.0L893.0 463.5ZM364.5 470.0L361.0 471.5L358.5 474.0L354.5 481.0L350.5 485.0L349.5 488.0L337.5 502.0L331.5 511.0L322.5 520.0L322.5 521.0L314.5 529.0L314.5 530.0L309.0 535.5L308.0 535.5L307.5 537.0L306.0 537.5L303.5 541.0L295.5 548.0L295.0 549.5L282.0 558.5L263.0 575.5L248.0 585.5L239.5 594.0L236.5 602.0L239.0 603.5L240.5 599.0L242.5 598.0L243.5 595.0L248.0 590.5L249.0 590.5L250.0 588.5L257.0 584.5L261.0 580.5L272.0 572.5L279.0 565.5L297.0 552.5L297.5 551.0L318.5 531.0L321.5 526.0L336.5 511.0L338.5 507.0L357.5 483.0L358.5 480.0L364.0 474.5L366.0 474.5L367.5 473.0L367.5 471.0L365.0 469.5ZM1191.5 470.0L1199.0 470.5L1199.0 469.5L1192.0 469.5ZM658.5 473.0L661.0 473.5L661.0 472.5L659.0 472.5ZM95.5 480.0L111.0 480.5L111.0 479.5L96.0 479.5ZM652.5 481.0L650.5 482.0L649.5 485.0L646.5 489.0L621.5 517.0L615.5 525.0L614.5 528.0L611.5 531.0L610.5 534.0L602.5 543.0L594.5 555.0L590.5 559.0L589.5 562.0L578.5 575.0L569.5 589.0L569.5 590.0L572.0 591.5L573.0 593.5L574.5 592.0L576.5 585.0L579.5 582.0L580.5 579.0L584.5 575.0L591.5 565.0L597.5 559.0L598.5 556.0L600.5 555.0L604.5 549.0L613.5 539.0L615.5 534.0L621.5 527.0L626.5 519.0L635.5 510.0L638.5 505.0L649.5 493.0L649.5 492.0L652.0 489.5L654.0 489.5L655.5 488.0L655.5 484.0L653.0 480.5ZM438.5 490.0L439.5 494.0L443.5 498.0L443.5 499.0L450.0 505.5L452.0 505.5L452.5 502.0L448.5 498.0L448.5 497.0L450.5 496.0L448.0 494.5L446.0 494.5L442.0 489.5L439.0 489.5ZM393.5 493.0L391.5 495.0L388.5 502.0L385.5 505.0L380.5 513.0L376.5 517.0L362.5 539.0L353.5 549.0L350.5 554.0L337.5 567.0L329.5 578.0L319.5 589.0L315.5 597.0L320.0 597.5L321.5 593.0L326.5 586.0L338.5 573.0L341.5 568.0L353.5 556.0L356.5 551.0L361.5 546.0L366.5 538.0L372.5 531.0L374.5 526.0L378.5 520.0L384.5 514.0L390.5 505.0L392.5 500.0L396.5 496.0L396.5 494.0L394.0 492.5ZM407.5 519.0L404.5 522.0L402.5 528.0L396.5 536.0L394.5 541.0L388.5 550.0L384.5 554.0L376.5 566.0L369.5 579.0L361.5 590.0L359.5 595.0L359.5 597.0L361.0 597.5L363.5 595.0L364.5 592.0L368.5 587.0L370.5 582.0L378.5 571.0L379.5 568.0L382.5 565.0L383.5 562.0L393.5 549.0L394.5 546.0L402.5 535.0L404.5 530.0L410.5 521.0L409.5 519.0L408.0 518.5ZM463.5 521.0L460.5 525.0L461.5 527.0L468.0 533.5L469.0 533.5L471.0 536.5L475.0 536.5L473.5 530.0L470.0 526.5L469.0 526.5L464.0 520.5ZM716.5 531.0L712.0 533.5L709.0 533.5L702.0 538.5L698.5 542.0L698.5 543.0L701.0 544.5L702.0 543.5L707.0 542.5L707.5 541.0L706.5 540.0L711.0 536.5L712.5 537.0L713.0 539.5L715.0 539.5L720.5 533.0L719.0 530.5L717.0 530.5ZM849.5 533.0L852.0 533.5L852.0 532.5L850.0 532.5ZM879.5 533.0L882.0 533.5L882.0 532.5L880.0 532.5ZM915.5 533.0L920.0 533.5L920.0 532.5L916.0 532.5ZM944.5 533.0L948.0 533.5L948.0 532.5L945.0 532.5ZM959.5 533.0L967.0 533.5L967.0 532.5L960.0 532.5ZM1231.5 533.0L1247.0 533.5L1247.0 532.5L1232.0 532.5ZM1249.5 533.0L1258.0 533.5L1258.0 532.5L1250.0 532.5ZM564.5 535.0L567.0 535.5L567.0 534.5L565.0 534.5ZM464.5 536.0L468.0 536.5L468.0 535.5L465.0 535.5ZM488.5 536.0L491.0 536.5L491.0 535.5L489.0 535.5ZM408.5 547.0L406.5 551.0L398.5 561.0L388.5 581.0L386.5 583.0L381.5 594.0L381.5 597.0L383.0 597.5L384.5 596.0L384.5 594.0L386.5 592.0L389.5 586.0L389.5 584.0L397.5 569.0L399.5 567.0L401.5 562.0L410.5 551.0L411.5 547.0L409.0 546.5ZM662.5 554.0L660.0 554.5L655.0 559.5L648.0 563.5L646.5 565.0L647.0 567.5L650.0 567.5L652.0 565.5L655.0 565.5L662.5 558.0L664.5 555.0L663.0 553.5ZM485.5 556.0L484.5 557.0L485.5 560.0L498.0 571.5L500.0 571.5L500.5 568.0L493.5 561.0L491.5 557.0L487.0 556.5L486.0 555.5ZM408.5 557.0L404.5 562.0L404.5 564.0L401.5 568.0L401.5 570.0L391.5 590.0L391.5 592.0L389.5 596.0L393.0 596.5L396.5 589.0L397.5 584.0L399.5 581.0L399.5 579.0L403.5 572.0L403.5 570.0L405.5 566.0L408.0 562.5L411.5 561.0L411.5 557.0L409.0 556.5ZM612.5 574.0L600.0 582.5L597.5 586.0L599.0 587.5L601.0 587.5L613.0 578.5L615.5 575.0L615.0 573.5L613.0 573.5ZM517.5 587.0L518.0 590.5L527.0 591.5L528.0 592.5L538.0 592.5L538.0 588.5L528.0 588.5L524.0 586.5L518.0 586.5ZM553.5 595.0L563.0 595.5L563.0 594.5L554.0 594.5ZM971.5 595.0L975.0 595.5L975.0 594.5L972.0 594.5ZM495.5 596.0L498.0 596.5L498.0 595.5L496.0 595.5ZM1159.5 596.0L1162.0 596.5L1162.0 595.5L1160.0 595.5ZM120.5 599.0L123.0 599.5L123.0 598.5L121.0 598.5ZM141.5 599.0L152.0 599.5L152.0 598.5L142.0 598.5ZM166.5 599.0L169.0 599.5L169.0 598.5L167.0 598.5ZM881.5 655.0L884.0 655.5L884.0 654.5L882.0 654.5ZM439.5 656.0L471.0 656.5L471.0 655.5L440.0 655.5ZM479.5 656.0L483.0 656.5L483.0 655.5L480.0 655.5ZM953.5 656.0L961.0 656.5L961.0 655.5L954.0 655.5Z"></path></svg>